<svg id="Layer_1" data-name="Layer 1" xmlns="http://www.w3.org/2000/svg" viewBox="0 0 616 834"><title>jf-bar-mask</title><path d="M211,1H370c-.44,2.24-1.43,4.53-1.22,6.7,1.34,14.17,2.91,28.33,4.49,42.48,1.44,12.93,5.17,25.07,12.3,36.11,1.78,2.75,4.21,6.29,3.75,9-1.24,7.33,2.81,11.9,6.48,17a14.78,14.78,0,0,1,2.15,5.94c.95,5.35.56,11.25,2.78,16a16.63,16.63,0,0,1,1.7,10.25c-.77,5.07-2.55,10.26-2,15.18,1.15,9.87.8,19.44-3.46,28.34-4.8,10-6.14,20.64-6.76,31.46-.66,11.65-9.44,17-20.09,11.55-1.25,4.74-2.49,9.37-3.68,14-2.19,8.53-3.46,17.44-6.78,25.5-3.68,9-3,18.21-4.1,27.34a4.62,4.62,0,0,0,1.29,3.47c10.36,9,21.28,16.21,35.51,18.6,11.8,2,23.14,6.74,34.63,10.42,6.61,2.12,13.07,4.73,19.69,6.83,10.55,3.35,21.52,5.66,31.69,9.91,10,4.19,19.29,10.16,28.75,15.58,1.34.78,2.17,2.82,2.77,4.45,2,5.43,3.65,11,5.69,16.39,6.27,16.62,13.64,32.9,18.76,49.86,6,19.81,9.64,40.32,15,60.32,4.93,18.22,10.84,36.18,16.37,54.24,1.4,4.55,3,9,4.49,13.51-9.53,4.22-10.29,5.51-8.67,16.1,1.54,10.15,3.29,20.28,5,30.41.59,3.42,1.56,6.77,2.14,10.2,1.61,9.54,3.25,19.09,4.57,28.68.49,3.53-.12,7.2.18,10.77,1.3,16,3.51,31.91,1,48a16.73,16.73,0,0,0,.94,7.3c4,12.65,8.37,25.2,12.26,37.89,2.24,7.32,5.38,14.57,4,22.59a10.26,10.26,0,0,0,.35,3c1,7,2,14,3,20.67-31-3.29-59.88,3.67-88.71,10.32-.44-2.78-1.14-6.71-1.66-10.65-2-15-2.91-30.13-6.09-44.82s-7.21-29.23-13.28-42.77c-10.81-24.13-19.81-48.64-24.39-74.73-.53-3-2.23-5.81-3.39-8.7l-1.47.22c-3.31,10.63-7.51,21.1-9.59,32-1.22,6.37-.26,13.82,1.9,20,3.05,8.76,4.4,17.2,3.09,26.37-1.52,10.71-.79,21.57,4.47,31.09,3.59,6.48,2.94,11.82-.07,17.74-.81,1.58-1.42,3.28-2.27,5.27,5.68,1.51,8.68,4.83,7.38,10.62a24,24,0,0,1-2.83,6.79c-3,5.17-2.55,6.7,3.2,8.6s6.71,3.85,4.68,9.56a52.25,52.25,0,0,1-2.39,5.09c-4.43-.28-8.42-1-12.32-.67-9,.75-17.71,4.23-27.23,1.4-4.22-1.26-9.44,1-14.23,1.41-5.42.5-11.34,2.34-16.21.86-13.76-4.16-27.85-5.08-41.84-5-19,.16-38,2-57,3.31-1.37.1-2.66,1.55-4,2.37l2.1,2.93c-7.22-1.41-15.54-2.34-23.39-4.77-8.2-2.53-18.39-.75-23.94-9.92-.41-.67-1.78-.77-2.71-1.13-2.16-.84-4.65-1.25-6.41-2.6-5.3-4.07-11.77-4.88-17.82-6.33-10.41-2.5-21.21-3.38-31.64-5.83-18.1-4.26-36-9.16-54-13.9-2.75-.72-4.08-.25-4.26,2.8-.25,4.15-.72,8.28-1.17,12.4-.9,8.36-2,16.7-2.7,25.07-.23,2.85.64,5.8,1.14,9.69-6.61-6.46-12.94-11-22-7.41q2.58-1.73,5.14-3.47a7.1,7.1,0,0,0-4.27.16c-9.94,2.48-19.77,6.35-29.84,7.09-16.22,1.2-32.59.29-48.9.37a52.86,52.86,0,0,0-6.65.77c.44-7.88.89-16.59,1.41-25.28.63-10.61,1.74-21.21,1.84-31.82a81.78,81.78,0,0,0-2.36-19c-1.6-6.85-2-13.41,2.76-18.85,2.65-3,3.19-6,2.89-9.52s-.75-7.28-.92-10.93c-.51-11.42-1.08-22.85-1.32-34.28-.16-7.28.45-14.57.31-21.85-.17-8.14-.84-16.26-1.21-24.39a38.07,38.07,0,0,1,.1-7.92c1.89-11.23,4.71-22.34,5.9-33.63,2.67-25.47,11.11-49.48,17.78-73.93,1-3.49.62-4.85-2.43-6.7a127.48,127.48,0,0,1-14.78-10.64c-2-1.61-4.58-3.7-2.59-7.19,4.35-7.62,8.9-15.15,12.82-23,7.28-14.52,14.78-29,21-44,4.4-10.53,6.68-21.93,10.27-32.82C76.17,357,83.7,342.45,97.53,332.27c7.35-5.41,15.28-10,23-14.95a7.16,7.16,0,0,1,3.18-1.2c12.24-.74,24.49-1.31,36.72-2.14a7.61,7.61,0,0,0,4.75-2.2c5.24-5.92,11.89-6,18.76-4.71,5.43,1.05,10.45,1.21,15.24-2.17s9.79-6.4,15.24-9.94c-11.56-16.94-18.25-36.41-21.13-57.06-7.35.09-13.24-4.28-13.43-9.74-.37-10.77-.6-21.55-.76-32.32a12.87,12.87,0,0,1,1.08-4.68c.76-1.95,1.84-3.77,2.81-5.72-5.78-2.06-5.51-2.08-5.88-7.4-.52-7.52-1.24-15-2.36-22.47-.46-3.1-2.57-5.92-3.22-9-.77-3.69.76-8-3.53-10.56-.41-.25-.29-1.57-.22-2.38.4-4.69,1.82-9.53,1.1-14-1.53-9.57,2.35-18.21,3.37-27.31a68.86,68.86,0,0,1,2.35-10c.66-2.41,1.47-4.79,2.36-7.13s2-4.86,3.09-7.27c1.61-3.66,3.55-7.21,4.78-11,.83-2.56.67-5.43,1-8.2-5.15-1.15-7.09-5.71-3.38-10,2.57-3,3-5.94,3.25-9.5.21-2.78.78-6.56,2.65-8,7-5.46,14.59-10.28,22.12-15C213.21,4.34,213.9,3.05,211,1ZM156.09,666.25c.67-2.62,1.72-4.73,1.58-6.74-.17-2.26-.86-5.8-2.31-6.41-4.49-1.87-3.87-5.06-3.77-8.62a148.16,148.16,0,0,0-.15-17.76c-.5-5.4-3.5-10.93-2.75-16,1.54-10.48-.34-20.49-1.73-30.62-.24-1.75-2.05-3.29-3.14-4.93-1,1.54-2.36,3-2.83,4.66-4.31,15.3-8.35,30.68-12.71,46-1.91,6.7-4.41,13.23-6.61,19.84-1.23,3.68-1.24,6.39,3.48,8,6.57,2.26,12.78,5.51,19.21,8.2C148.13,663.4,152,664.72,156.09,666.25Z"/></svg>