<?xml version="1.0" encoding="utf-8"?>
<!-- Generator: Adobe Illustrator 23.0.1, SVG Export Plug-In . SVG Version: 6.00 Build 0)  -->
<svg version="1.1" id="Layer_1" xmlns="http://www.w3.org/2000/svg" xmlns:xlink="http://www.w3.org/1999/xlink" x="0px" y="0px"
	 viewBox="0 0 616 834" style="enable-background:new 0 0 616 834;" xml:space="preserve">
<style type="text/css">
	.st0{fill:url(#SVGID_1_);}
</style>
<linearGradient id="SVGID_1_" gradientUnits="userSpaceOnUse" x1="304.9309" y1="59.5101" x2="306.8857" y2="788.6309">
	<stop  offset="0.7729" style="stop-color:#000000"/>
	<stop  offset="1" style="stop-color:#242424"/>
</linearGradient>
<path class="st0" d="M20.3,732.5c1.5,6.2,2.3,12.6,2.4,19c-0.1,10.6-1.2,21.2-1.8,31.8c-0.2,3.3-0.4,6.6-0.6,9.9h105.3
	c0.6-5.6,1.3-11.3,1.9-16.9c0.5-4.1,0.9-8.2,1.2-12.4c0.2-3,1.5-3.5,4.3-2.8c18,4.7,35.9,9.6,54,13.9c10.4,2.5,21.2,3.3,31.6,5.8
	c6,1.5,12.5,2.3,17.8,6.3c1.8,1.3,4.2,1.8,6.4,2.6c0.9,0.4,2.3,0.5,2.7,1.1c0.5,0.9,1.1,1.6,1.7,2.3h219c1.7-5.2,0.6-7.1-4.9-8.9
	c-5.8-1.9-6.2-3.4-3.2-8.6c1.3-2.1,2.2-4.4,2.8-6.8c1.3-5.8-1.7-9.1-7.4-10.6c0.8-2,1.5-3.7,2.3-5.3c3-5.9,3.7-11.3,0.1-17.7
	c-5.3-9.5-6-20.4-4.5-31.1c1.3-9.2,0-17.6-3.1-26.4c-2.2-6.2-3.1-13.6-1.9-20c2.1-10.9,6.3-21.4,9.6-32l1.5-0.2
	c1.2,2.9,2.9,5.7,3.4,8.7c4.6,26.1,13.6,50.6,24.4,74.7c6.1,13.5,10.1,28.1,13.3,42.8c2.9,13.6,3.9,27.5,5.7,41.4h90.2
	c-0.8-5.5-1.6-11.2-2.4-16.9c-0.3-1-0.4-2-0.3-3c1.4-8-1.8-15.3-4-22.6c-3.9-12.7-8.3-25.2-12.3-37.9c-0.9-2.3-1.2-4.8-0.9-7.3
	c2.5-16.1,0.3-32-1-48c-0.3-3.6,0.3-7.2-0.2-10.8c-1.3-9.6-3-19.1-4.6-28.7c-0.6-3.4-1.5-6.8-2.1-10.2c-1.7-10.1-3.5-20.3-5-30.4
	c-1.6-10.6-0.9-11.9,8.7-16.1c-1.5-4.5-3.1-9-4.5-13.5c-5.5-18.1-11.4-36-16.4-54.2c-5.4-20-9-40.5-15-60.3
	c-5.1-17-12.5-33.2-18.8-49.9c-2-5.4-3.7-11-5.7-16.4c-0.6-1.6-1.4-3.7-2.8-4.5c-9.5-5.4-18.8-11.4-28.8-15.6
	c-10.2-4.2-21.1-6.6-31.7-9.9c-6.6-2.1-13.1-4.7-19.7-6.8c-11.5-3.7-22.8-8.4-34.6-10.4c-14.2-2.4-25.2-9.6-35.5-18.6
	c-0.9-0.9-1.4-2.2-1.3-3.5c1.1-9.1,0.4-18.3,4.1-27.3c3.3-8.1,4.6-17,6.8-25.5c1.2-4.6,2.4-9.3,3.7-14c10.7,5.4,19.4,0.1,20.1-11.6
	c0.6-10.8,2-21.5,6.8-31.5c4.3-8.9,4.6-18.5,3.5-28.3c-0.5-4.9,1.2-10.1,2-15.2c0.5-3.5-0.1-7.1-1.7-10.2c-2.2-4.8-1.8-10.6-2.8-16
	c-0.3-2.1-1-4.1-2.2-5.9c-3.7-5.1-7.7-9.7-6.5-17c0.5-2.7-2-6.2-3.8-9c-7.1-11-10.9-23.2-12.3-36.1c-1.6-14.2-3.2-28.3-4.5-42.5
	c-0.2-2.2,0.8-4.5,1.2-6.7H211c2.9,2,2.2,3.3-0.5,5.2c-7.5,4.7-15.1,9.5-22.1,15c-1.9,1.4-2.4,5.2-2.6,8c-0.2,3.6-0.7,6.5-3.2,9.5
	c-3.7,4.3-1.8,8.8,3.4,10c-0.3,2.8-0.2,5.6-1,8.2c-1.2,3.8-3.2,7.3-4.8,11c-1.1,2.4-2.2,4.9-3.1,7.3c-0.9,2.3-1.7,4.7-2.4,7.1
	c-1,3.3-1.8,6.6-2.3,10c-1,9.1-4.9,17.7-3.4,27.3c0.7,4.5-0.7,9.3-1.1,14c-0.1,0.8-0.2,2.1,0.2,2.4c4.3,2.6,2.8,6.9,3.5,10.6
	c0.7,3.1,2.8,5.9,3.2,9c1.1,7.5,1.8,15,2.4,22.5c0.4,5.3,0.1,5.3,5.9,7.4c-1,2-2,3.8-2.8,5.7c-0.7,1.5-1,3.1-1.1,4.7
	c0.2,10.8,0.4,21.5,0.8,32.3c0.2,5.5,6.1,9.8,13.4,9.7c2.9,20.7,9.6,40.1,21.1,57.1c-5.5,3.5-10.4,6.6-15.2,9.9
	c-4.8,3.4-9.8,3.2-15.2,2.2c-6.9-1.3-13.5-1.2-18.8,4.7c-1.3,1.3-3,2.1-4.8,2.2c-12.2,0.8-24.5,1.4-36.7,2.1
	c-1.1,0.1-2.2,0.6-3.2,1.2c-7.7,5-15.7,9.5-23,15c-13.8,10.2-21.4,24.7-26.7,40.6c-3.6,10.9-5.9,22.3-10.3,32.8
	c-6.2,15-13.7,29.5-21,44c-3.9,7.8-8.5,15.4-12.8,23c-2,3.5,0.6,5.6,2.6,7.2c4.7,3.9,9.6,7.5,14.8,10.6c3,1.8,3.4,3.2,2.4,6.7
	c-6.7,24.5-15.1,48.5-17.8,73.9c-1.2,11.3-4,22.4-5.9,33.6c-0.3,2.6-0.3,5.3-0.1,7.9c0.4,8.1,1,16.2,1.2,24.4
	c0.1,7.3-0.5,14.6-0.3,21.8c0.2,11.4,0.8,22.9,1.3,34.3c0.2,3.6,0.6,7.4,0.9,10.9s-0.2,6.5-2.9,9.5
	C18.3,719.1,18.7,725.7,20.3,732.5z M121.7,645.7c2.2-6.6,4.7-13.1,6.6-19.8c4.4-15.3,8.4-30.7,12.7-46c0.5-1.7,1.8-3.1,2.8-4.7
	c1.1,1.6,2.9,3.2,3.1,4.9c1.4,10.1,3.3,20.1,1.7,30.6c-0.8,5.1,2.2,10.6,2.8,16c0.4,5.9,0.5,11.8,0.2,17.8c-0.1,3.6-0.7,6.8,3.8,8.6
	c1.5,0.6,2.1,4.1,2.3,6.4c0.1,2-0.9,4.1-1.6,6.7c-4.1-1.5-8-2.8-11.7-4.4c-6.4-2.7-12.6-5.9-19.2-8.2
	C120.4,652.1,120.4,649.4,121.7,645.7z"/>
</svg>
